<?xml version="1.0" encoding="utf-8"?>
<!-- Generator: Adobe Illustrator 26.5.0, SVG Export Plug-In . SVG Version: 6.00 Build 0)  -->
<svg version="1.1" id="Calque_1" xmlns="http://www.w3.org/2000/svg" xmlns:xlink="http://www.w3.org/1999/xlink" x="0px" y="0px"
	 viewBox="0 0 64 64" style="enable-background:new 0 0 64 64;" xml:space="preserve">
<style type="text/css">
	.st0{fill:#292841;}
	.st1{fill:#7CCBDD;}
	.st2{fill:#DFF1FD;}
</style>
<g>
	<path class="st0" d="M60,64H4c-2.21,0-4-1.79-4-4V4c0-2.21,1.79-4,4-4h56c2.21,0,4,1.79,4,4v56C64,62.21,62.21,64,60,64z"/>
	<path class="st1" d="M40,12h-8V9c0-0.55,0.45-1,1-1h6c0.55,0,1,0.45,1,1V12z"/>
	<path class="st1" d="M11,36H5c-0.55,0-1-0.45-1-1v-2c0-0.55,0.45-1,1-1h6c0.55,0,1,0.45,1,1v2C12,35.55,11.55,36,11,36z"/>
	<path class="st2" d="M8,36H5c-0.55,0-1-0.45-1-1v-2c0-0.55,0.45-1,1-1h3V36z"/>
	<path class="st1" d="M28,24h-8v-3c0-0.55,0.45-1,1-1h6c0.55,0,1,0.45,1,1V24z"/>
	<path class="st1" d="M31,28H13c-0.55,0-1-0.45-1-1v-2c0-0.55,0.45-1,1-1h18c0.55,0,1,0.45,1,1v2C32,27.55,31.55,28,31,28z"/>
	<path class="st1" d="M23,32h-6c-0.55,0-1-0.45-1-1v-3h8v3C24,31.55,23.55,32,23,32z"/>
	<path class="st2" d="M16,28h-3c-0.55,0-1-0.45-1-1v-2c0-0.55,0.45-1,1-1h3V28z"/>
	<path class="st2" d="M23,24h-3v-3c0-0.55,0.45-1,1-1h3v3C24,23.55,23.55,24,23,24z"/>
	<path class="st1" d="M19,12h-6c-0.55,0-1-0.45-1-1V9c0-0.55,0.45-1,1-1h6c0.55,0,1,0.45,1,1v2C20,11.55,19.55,12,19,12z"/>
	<path class="st1" d="M39,16H29c-0.55,0-1-0.45-1-1v-2c0-0.55,0.45-1,1-1h11v3C40,15.55,39.55,16,39,16z"/>
	<path class="st2" d="M32,16h-3c-0.55,0-1-0.45-1-1v-2c0-0.55,0.45-1,1-1h3V16z"/>
	<path class="st2" d="M36,12h-4V9c0-0.55,0.45-1,1-1h3V12z"/>
	<path class="st1" d="M55,12h-6c-0.55,0-1-0.45-1-1V9c0-0.55,0.45-1,1-1h6c0.55,0,1,0.45,1,1v2C56,11.55,55.55,12,55,12z"/>
	<path class="st2" d="M52,12h-3c-0.55,0-1-0.45-1-1V9c0-0.55,0.45-1,1-1h3V12z"/>
	<path class="st1" d="M51,28H41c-0.55,0-1-0.45-1-1v-3h11c0.55,0,1,0.45,1,1v2C52,27.55,51.55,28,51,28z"/>
	<path class="st1" d="M48,24h-8v-3c0-0.55,0.45-1,1-1h6c0.55,0,1,0.45,1,1V24z"/>
	<path class="st2" d="M43,24h-3v-3c0-0.55,0.45-1,1-1h3v3C44,23.55,43.55,24,43,24z"/>
	<path class="st1" d="M43,40H29c-0.55,0-1-0.45-1-1v-2c0-0.55,0.45-1,1-1h14c0.55,0,1,0.45,1,1v2C44,39.55,43.55,40,43,40z"/>
	<path class="st1" d="M40,36h-8v-3c0-0.55,0.45-1,1-1h6c0.55,0,1,0.45,1,1V36z"/>
	<path class="st2" d="M35,36h-3v-3c0-0.55,0.45-1,1-1h3v3C36,35.55,35.55,36,35,36z"/>
	<path class="st1" d="M23,48h-6c-0.55,0-1-0.45-1-1v-6c0-0.55,0.45-1,1-1h6c0.55,0,1,0.45,1,1v6C24,47.55,23.55,48,23,48z"/>
	<path class="st2" d="M19,44h-3v-3c0-0.55,0.45-1,1-1h3v3C20,43.55,19.55,44,19,44z"/>
	<path class="st1" d="M19,56h-6c-0.55,0-1-0.45-1-1v-2c0-0.55,0.45-1,1-1h6c0.55,0,1,0.45,1,1v2C20,55.55,19.55,56,19,56z"/>
	<path class="st2" d="M16,56h-3c-0.55,0-1-0.45-1-1v-2c0-0.55,0.45-1,1-1h3V56z"/>
	<path class="st1" d="M55,52H33c-0.55,0-1-0.45-1-1v-2c0-0.55,0.45-1,1-1h22c0.55,0,1,0.45,1,1v2C56,51.55,55.55,52,55,52z"/>
	<path class="st1" d="M47,56H37c-0.55,0-1-0.45-1-1v-3h12v3C48,55.55,47.55,56,47,56z"/>
	<path class="st1" d="M52,48H40v-3c0-0.55,0.45-1,1-1h10c0.55,0,1,0.45,1,1V48z"/>
	<path class="st2" d="M39,52h-3v-4h4v3C40,51.55,39.55,52,39,52z"/>
	<path class="st2" d="M47,48h-7v-3c0-0.55,0.45-1,1-1h7v3C48,47.55,47.55,48,47,48z"/>
</g>
</svg>
