<?xml version="1.0" encoding="utf-8"?>
<!-- Generator: Adobe Illustrator 26.5.0, SVG Export Plug-In . SVG Version: 6.00 Build 0)  -->
<svg version="1.1" id="Calque_1" xmlns="http://www.w3.org/2000/svg" xmlns:xlink="http://www.w3.org/1999/xlink" x="0px" y="0px"
	 viewBox="0 0 64 64" style="enable-background:new 0 0 64 64;" xml:space="preserve">
<style type="text/css">
	.st0{fill:#1B1D2A;}
	.st1{fill:#7CCBDD;}
	.st2{fill:#DFF1FD;}
</style>
<path class="st0" d="M60,64H4c-2.2,0-4-1.8-4-4V4c0-2.2,1.8-4,4-4h56c2.2,0,4,1.8,4,4v56C64,62.2,62.2,64,60,64z"/>
<path class="st1" d="M40,9v6c0,0.5-0.5,1-1,1H29c-0.5,0-1-0.5-1-1v-2c0-0.5,0.5-1,1-1h3V9c0-0.5,0.5-1,1-1h6C39.5,8,40,8.5,40,9z"/>
<path class="st1" d="M11,36H5c-0.6,0-1-0.5-1-1v-2c0-0.5,0.4-1,1-1h6c0.6,0,1,0.5,1,1v2C12,35.5,11.6,36,11,36z"/>
<path class="st2" d="M8,36H5c-0.6,0-1-0.5-1-1v-2c0-0.5,0.4-1,1-1h3V36z"/>
<path class="st1" d="M32,25v2c0,0.5-0.5,1-1,1h-7v3c0,0.5-0.5,1-1,1h-6c-0.5,0-1-0.5-1-1v-3h-3c-0.5,0-1-0.5-1-1v-2c0-0.5,0.5-1,1-1
	h7v-3c0-0.5,0.5-1,1-1h6c0.5,0,1,0.5,1,1v3h3C31.5,24,32,24.5,32,25z"/>
<path class="st2" d="M16,28h-3c-0.6,0-1-0.5-1-1v-2c0-0.5,0.4-1,1-1h3V28z"/>
<path class="st2" d="M23,24h-3v-3c0-0.5,0.5-1,1-1h3v3C24,23.5,23.5,24,23,24z"/>
<path class="st1" d="M19,12h-6c-0.6,0-1-0.4-1-1V9c0-0.6,0.4-1,1-1h6c0.5,0,1,0.4,1,1v2C20,11.6,19.5,12,19,12z"/>
<path class="st2" d="M32,16h-3c-0.5,0-1-0.4-1-1v-2c0-0.6,0.5-1,1-1h3V16z"/>
<path class="st2" d="M36,12h-4V9c0-0.6,0.5-1,1-1h3V12z"/>
<path class="st1" d="M55,12h-6c-0.5,0-1-0.4-1-1V9c0-0.6,0.5-1,1-1h6c0.5,0,1,0.4,1,1v2C56,11.6,55.5,12,55,12z"/>
<path class="st2" d="M52,12h-3c-0.5,0-1-0.4-1-1V9c0-0.6,0.5-1,1-1h3V12z"/>
<path class="st1" d="M52,25v2c0,0.5-0.5,1-1,1H41c-0.5,0-1-0.5-1-1v-6c0-0.5,0.5-1,1-1h6c0.5,0,1,0.5,1,1v3h3C51.5,24,52,24.5,52,25
	z"/>
<path class="st2" d="M43,24h-3v-3c0-0.5,0.5-1,1-1h3v3C44,23.5,43.5,24,43,24z"/>
<path class="st1" d="M44,37v2c0,0.5-0.5,1-1,1H29c-0.5,0-1-0.5-1-1v-2c0-0.5,0.5-1,1-1h3v-3c0-0.5,0.5-1,1-1h6c0.5,0,1,0.5,1,1v3h3
	C43.5,36,44,36.5,44,37z"/>
<path class="st2" d="M35,36h-3v-3c0-0.5,0.5-1,1-1h3v3C36,35.5,35.5,36,35,36z"/>
<path class="st1" d="M23,48h-6c-0.5,0-1-0.5-1-1v-6c0-0.5,0.5-1,1-1h6c0.5,0,1,0.5,1,1v6C24,47.5,23.5,48,23,48z"/>
<path class="st2" d="M19,44h-3v-3c0-0.5,0.5-1,1-1h3v3C20,43.5,19.5,44,19,44z"/>
<path class="st1" d="M19,56h-6c-0.6,0-1-0.5-1-1v-2c0-0.5,0.4-1,1-1h6c0.5,0,1,0.5,1,1v2C20,55.5,19.5,56,19,56z"/>
<path class="st2" d="M16,56h-3c-0.6,0-1-0.5-1-1v-2c0-0.5,0.4-1,1-1h3V56z"/>
<path class="st1" d="M56,49v2c0,0.5-0.5,1-1,1h-7v3c0,0.5-0.5,1-1,1H37c-0.5,0-1-0.5-1-1v-3h-3c-0.5,0-1-0.5-1-1v-2c0-0.5,0.5-1,1-1
	h7v-3c0-0.5,0.5-1,1-1h10c0.5,0,1,0.5,1,1v3h3C55.5,48,56,48.5,56,49z"/>
<path class="st2" d="M39,52h-3v-4h4v3C40,51.5,39.5,52,39,52z"/>
<path class="st2" d="M47,48h-7v-3c0-0.5,0.5-1,1-1h7v3C48,47.5,47.5,48,47,48z"/>
</svg>
